<svg width="80" height="103" viewBox="0 0 80 103" fill="none" xmlns="http://www.w3.org/2000/svg">
<path d="M3.26531 1.77586C3.26531 2.75664 2.53434 3.55172 1.63265 3.55172C0.730964 3.55172 0 2.75664 0 1.77586C0 0.795081 0.730964 0 1.63265 0C2.53434 0 3.26531 0.795081 3.26531 1.77586Z" fill="#ADB2A2"/>
<path d="M18.6122 1.77586C18.6122 2.75664 17.8813 3.55172 16.9796 3.55172C16.0779 3.55172 15.3469 2.75664 15.3469 1.77586C15.3469 0.795081 16.0779 0 16.9796 0C17.8813 0 18.6122 0.795081 18.6122 1.77586Z" fill="#ADB2A2"/>
<path d="M33.9592 1.77586C33.9592 2.75664 33.2282 3.55172 32.3265 3.55172C31.4248 3.55172 30.6939 2.75664 30.6939 1.77586C30.6939 0.795081 31.4248 0 32.3265 0C33.2282 0 33.9592 0.795081 33.9592 1.77586Z" fill="#ADB2A2"/>
<path d="M49.3061 1.77586C49.3061 2.75664 48.5752 3.55172 47.6735 3.55172C46.7718 3.55172 46.0408 2.75664 46.0408 1.77586C46.0408 0.795081 46.7718 0 47.6735 0C48.5752 0 49.3061 0.795081 49.3061 1.77586Z" fill="#ADB2A2"/>
<path d="M64.6531 1.77586C64.6531 2.75664 63.9221 3.55172 63.0204 3.55172C62.1187 3.55172 61.3878 2.75664 61.3878 1.77586C61.3878 0.795081 62.1187 0 63.0204 0C63.9221 0 64.6531 0.795081 64.6531 1.77586Z" fill="#ADB2A2"/>
<path d="M80 1.77586C80 2.75664 79.269 3.55172 78.3673 3.55172C77.4657 3.55172 76.7347 2.75664 76.7347 1.77586C76.7347 0.795081 77.4657 0 78.3673 0C79.269 0 80 0.795081 80 1.77586Z" fill="#ADB2A2"/>
<path d="M3.26531 14.2069C3.26531 15.1877 2.53434 15.9828 1.63265 15.9828C0.730964 15.9828 0 15.1877 0 14.2069C0 13.2261 0.730964 12.431 1.63265 12.431C2.53434 12.431 3.26531 13.2261 3.26531 14.2069Z" fill="#ADB2A2"/>
<path d="M18.6122 14.2069C18.6122 15.1877 17.8813 15.9828 16.9796 15.9828C16.0779 15.9828 15.3469 15.1877 15.3469 14.2069C15.3469 13.2261 16.0779 12.431 16.9796 12.431C17.8813 12.431 18.6122 13.2261 18.6122 14.2069Z" fill="#ADB2A2"/>
<path d="M33.9592 14.2069C33.9592 15.1877 33.2282 15.9828 32.3265 15.9828C31.4248 15.9828 30.6939 15.1877 30.6939 14.2069C30.6939 13.2261 31.4248 12.431 32.3265 12.431C33.2282 12.431 33.9592 13.2261 33.9592 14.2069Z" fill="#ADB2A2"/>
<path d="M49.3061 14.2069C49.3061 15.1877 48.5752 15.9828 47.6735 15.9828C46.7718 15.9828 46.0408 15.1877 46.0408 14.2069C46.0408 13.2261 46.7718 12.431 47.6735 12.431C48.5752 12.431 49.3061 13.2261 49.3061 14.2069Z" fill="#ADB2A2"/>
<path d="M64.6531 14.2069C64.6531 15.1877 63.9221 15.9828 63.0204 15.9828C62.1187 15.9828 61.3878 15.1877 61.3878 14.2069C61.3878 13.2261 62.1187 12.431 63.0204 12.431C63.9221 12.431 64.6531 13.2261 64.6531 14.2069Z" fill="#ADB2A2"/>
<path d="M80 14.2069C80 15.1877 79.269 15.9828 78.3673 15.9828C77.4657 15.9828 76.7347 15.1877 76.7347 14.2069C76.7347 13.2261 77.4657 12.431 78.3673 12.431C79.269 12.431 80 13.2261 80 14.2069Z" fill="#ADB2A2"/>
<path d="M3.26531 26.6379C3.26531 27.6187 2.53434 28.4138 1.63265 28.4138C0.730964 28.4138 0 27.6187 0 26.6379C0 25.6572 0.730964 24.8621 1.63265 24.8621C2.53434 24.8621 3.26531 25.6572 3.26531 26.6379Z" fill="#ADB2A2"/>
<path d="M18.6122 26.6379C18.6122 27.6187 17.8813 28.4138 16.9796 28.4138C16.0779 28.4138 15.3469 27.6187 15.3469 26.6379C15.3469 25.6572 16.0779 24.8621 16.9796 24.8621C17.8813 24.8621 18.6122 25.6572 18.6122 26.6379Z" fill="#ADB2A2"/>
<path d="M33.9592 26.6379C33.9592 27.6187 33.2282 28.4138 32.3265 28.4138C31.4248 28.4138 30.6939 27.6187 30.6939 26.6379C30.6939 25.6572 31.4248 24.8621 32.3265 24.8621C33.2282 24.8621 33.9592 25.6572 33.9592 26.6379Z" fill="#ADB2A2"/>
<path d="M49.3061 26.6379C49.3061 27.6187 48.5752 28.4138 47.6735 28.4138C46.7718 28.4138 46.0408 27.6187 46.0408 26.6379C46.0408 25.6572 46.7718 24.8621 47.6735 24.8621C48.5752 24.8621 49.3061 25.6572 49.3061 26.6379Z" fill="#ADB2A2"/>
<path d="M64.6531 26.6379C64.6531 27.6187 63.9221 28.4138 63.0204 28.4138C62.1187 28.4138 61.3878 27.6187 61.3878 26.6379C61.3878 25.6572 62.1187 24.8621 63.0204 24.8621C63.9221 24.8621 64.6531 25.6572 64.6531 26.6379Z" fill="#ADB2A2"/>
<path d="M80 26.6379C80 27.6187 79.269 28.4138 78.3673 28.4138C77.4657 28.4138 76.7347 27.6187 76.7347 26.6379C76.7347 25.6572 77.4657 24.8621 78.3673 24.8621C79.269 24.8621 80 25.6572 80 26.6379Z" fill="#ADB2A2"/>
<path d="M3.26531 39.069C3.26531 40.0498 2.53434 40.8448 1.63265 40.8448C0.730964 40.8448 0 40.0498 0 39.069C0 38.0882 0.730964 37.2931 1.63265 37.2931C2.53434 37.2931 3.26531 38.0882 3.26531 39.069Z" fill="#ADB2A2"/>
<path d="M18.6122 39.069C18.6122 40.0498 17.8813 40.8448 16.9796 40.8448C16.0779 40.8448 15.3469 40.0498 15.3469 39.069C15.3469 38.0882 16.0779 37.2931 16.9796 37.2931C17.8813 37.2931 18.6122 38.0882 18.6122 39.069Z" fill="#ADB2A2"/>
<path d="M33.9592 39.069C33.9592 40.0498 33.2282 40.8448 32.3265 40.8448C31.4248 40.8448 30.6939 40.0498 30.6939 39.069C30.6939 38.0882 31.4248 37.2931 32.3265 37.2931C33.2282 37.2931 33.9592 38.0882 33.9592 39.069Z" fill="#ADB2A2"/>
<path d="M49.3061 39.069C49.3061 40.0498 48.5752 40.8448 47.6735 40.8448C46.7718 40.8448 46.0408 40.0498 46.0408 39.069C46.0408 38.0882 46.7718 37.2931 47.6735 37.2931C48.5752 37.2931 49.3061 38.0882 49.3061 39.069Z" fill="#ADB2A2"/>
<path d="M64.6531 39.069C64.6531 40.0498 63.9221 40.8448 63.0204 40.8448C62.1187 40.8448 61.3878 40.0498 61.3878 39.069C61.3878 38.0882 62.1187 37.2931 63.0204 37.2931C63.9221 37.2931 64.6531 38.0882 64.6531 39.069Z" fill="#ADB2A2"/>
<path d="M80 39.069C80 40.0498 79.269 40.8448 78.3673 40.8448C77.4657 40.8448 76.7347 40.0498 76.7347 39.069C76.7347 38.0882 77.4657 37.2931 78.3673 37.2931C79.269 37.2931 80 38.0882 80 39.069Z" fill="#ADB2A2"/>
<path d="M3.26531 51.5C3.26531 52.4808 2.53434 53.2759 1.63265 53.2759C0.730964 53.2759 0 52.4808 0 51.5C0 50.5192 0.730964 49.7241 1.63265 49.7241C2.53434 49.7241 3.26531 50.5192 3.26531 51.5Z" fill="#ADB2A2"/>
<path d="M18.6122 51.5C18.6122 52.4808 17.8813 53.2759 16.9796 53.2759C16.0779 53.2759 15.3469 52.4808 15.3469 51.5C15.3469 50.5192 16.0779 49.7241 16.9796 49.7241C17.8813 49.7241 18.6122 50.5192 18.6122 51.5Z" fill="#ADB2A2"/>
<path d="M33.9592 51.5C33.9592 52.4808 33.2282 53.2759 32.3265 53.2759C31.4248 53.2759 30.6939 52.4808 30.6939 51.5C30.6939 50.5192 31.4248 49.7241 32.3265 49.7241C33.2282 49.7241 33.9592 50.5192 33.9592 51.5Z" fill="#ADB2A2"/>
<path d="M49.3061 51.5C49.3061 52.4808 48.5752 53.2759 47.6735 53.2759C46.7718 53.2759 46.0408 52.4808 46.0408 51.5C46.0408 50.5192 46.7718 49.7241 47.6735 49.7241C48.5752 49.7241 49.3061 50.5192 49.3061 51.5Z" fill="#ADB2A2"/>
<path d="M64.6531 51.5C64.6531 52.4808 63.9221 53.2759 63.0204 53.2759C62.1187 53.2759 61.3878 52.4808 61.3878 51.5C61.3878 50.5192 62.1187 49.7241 63.0204 49.7241C63.9221 49.7241 64.6531 50.5192 64.6531 51.5Z" fill="#ADB2A2"/>
<path d="M80 51.5C80 52.4808 79.269 53.2759 78.3673 53.2759C77.4657 53.2759 76.7347 52.4808 76.7347 51.5C76.7347 50.5192 77.4657 49.7241 78.3673 49.7241C79.269 49.7241 80 50.5192 80 51.5Z" fill="#ADB2A2"/>
<path d="M3.26531 63.931C3.26531 64.9118 2.53434 65.7069 1.63265 65.7069C0.730964 65.7069 0 64.9118 0 63.931C0 62.9503 0.730964 62.1552 1.63265 62.1552C2.53434 62.1552 3.26531 62.9503 3.26531 63.931Z" fill="#ADB2A2"/>
<path d="M18.6122 63.931C18.6122 64.9118 17.8813 65.7069 16.9796 65.7069C16.0779 65.7069 15.3469 64.9118 15.3469 63.931C15.3469 62.9503 16.0779 62.1552 16.9796 62.1552C17.8813 62.1552 18.6122 62.9503 18.6122 63.931Z" fill="#ADB2A2"/>
<path d="M33.9592 63.931C33.9592 64.9118 33.2282 65.7069 32.3265 65.7069C31.4248 65.7069 30.6939 64.9118 30.6939 63.931C30.6939 62.9503 31.4248 62.1552 32.3265 62.1552C33.2282 62.1552 33.9592 62.9503 33.9592 63.931Z" fill="#ADB2A2"/>
<path d="M49.3061 63.931C49.3061 64.9118 48.5752 65.7069 47.6735 65.7069C46.7718 65.7069 46.0408 64.9118 46.0408 63.931C46.0408 62.9503 46.7718 62.1552 47.6735 62.1552C48.5752 62.1552 49.3061 62.9503 49.3061 63.931Z" fill="#ADB2A2"/>
<path d="M64.6531 63.931C64.6531 64.9118 63.9221 65.7069 63.0204 65.7069C62.1187 65.7069 61.3878 64.9118 61.3878 63.931C61.3878 62.9503 62.1187 62.1552 63.0204 62.1552C63.9221 62.1552 64.6531 62.9503 64.6531 63.931Z" fill="#ADB2A2"/>
<path d="M80 63.931C80 64.9118 79.269 65.7069 78.3673 65.7069C77.4657 65.7069 76.7347 64.9118 76.7347 63.931C76.7347 62.9503 77.4657 62.1552 78.3673 62.1552C79.269 62.1552 80 62.9503 80 63.931Z" fill="#ADB2A2"/>
<path d="M3.26531 76.3621C3.26531 77.3429 2.53434 78.1379 1.63265 78.1379C0.730964 78.1379 0 77.3429 0 76.3621C0 75.3813 0.730964 74.5862 1.63265 74.5862C2.53434 74.5862 3.26531 75.3813 3.26531 76.3621Z" fill="url(#paint0_linear_4_130)"/>
<path d="M18.6122 76.3621C18.6122 77.3429 17.8813 78.1379 16.9796 78.1379C16.0779 78.1379 15.3469 77.3429 15.3469 76.3621C15.3469 75.3813 16.0779 74.5862 16.9796 74.5862C17.8813 74.5862 18.6122 75.3813 18.6122 76.3621Z" fill="url(#paint1_linear_4_130)"/>
<path d="M33.9592 76.3621C33.9592 77.3429 33.2282 78.1379 32.3265 78.1379C31.4248 78.1379 30.6939 77.3429 30.6939 76.3621C30.6939 75.3813 31.4248 74.5862 32.3265 74.5862C33.2282 74.5862 33.9592 75.3813 33.9592 76.3621Z" fill="url(#paint2_linear_4_130)"/>
<path d="M49.3061 76.3621C49.3061 77.3429 48.5752 78.1379 47.6735 78.1379C46.7718 78.1379 46.0408 77.3429 46.0408 76.3621C46.0408 75.3813 46.7718 74.5862 47.6735 74.5862C48.5752 74.5862 49.3061 75.3813 49.3061 76.3621Z" fill="url(#paint3_linear_4_130)"/>
<path d="M64.6531 76.3621C64.6531 77.3429 63.9221 78.1379 63.0204 78.1379C62.1187 78.1379 61.3878 77.3429 61.3878 76.3621C61.3878 75.3813 62.1187 74.5862 63.0204 74.5862C63.9221 74.5862 64.6531 75.3813 64.6531 76.3621Z" fill="url(#paint4_linear_4_130)"/>
<path d="M80 76.3621C80 77.3429 79.269 78.1379 78.3673 78.1379C77.4657 78.1379 76.7347 77.3429 76.7347 76.3621C76.7347 75.3813 77.4657 74.5862 78.3673 74.5862C79.269 74.5862 80 75.3813 80 76.3621Z" fill="url(#paint5_linear_4_130)"/>
<path d="M3.26531 88.7931C3.26531 89.7739 2.53434 90.569 1.63265 90.569C0.730964 90.569 0 89.7739 0 88.7931C0 87.8123 0.730964 87.0172 1.63265 87.0172C2.53434 87.0172 3.26531 87.8123 3.26531 88.7931Z" fill="url(#paint6_linear_4_130)"/>
<path d="M18.6122 88.7931C18.6122 89.7739 17.8813 90.569 16.9796 90.569C16.0779 90.569 15.3469 89.7739 15.3469 88.7931C15.3469 87.8123 16.0779 87.0172 16.9796 87.0172C17.8813 87.0172 18.6122 87.8123 18.6122 88.7931Z" fill="url(#paint7_linear_4_130)"/>
<path d="M33.9592 88.7931C33.9592 89.7739 33.2282 90.569 32.3265 90.569C31.4248 90.569 30.6939 89.7739 30.6939 88.7931C30.6939 87.8123 31.4248 87.0172 32.3265 87.0172C33.2282 87.0172 33.9592 87.8123 33.9592 88.7931Z" fill="url(#paint8_linear_4_130)"/>
<path d="M49.3061 88.7931C49.3061 89.7739 48.5752 90.569 47.6735 90.569C46.7718 90.569 46.0408 89.7739 46.0408 88.7931C46.0408 87.8123 46.7718 87.0172 47.6735 87.0172C48.5752 87.0172 49.3061 87.8123 49.3061 88.7931Z" fill="url(#paint9_linear_4_130)"/>
<path d="M64.6531 88.7931C64.6531 89.7739 63.9221 90.569 63.0204 90.569C62.1187 90.569 61.3878 89.7739 61.3878 88.7931C61.3878 87.8123 62.1187 87.0172 63.0204 87.0172C63.9221 87.0172 64.6531 87.8123 64.6531 88.7931Z" fill="url(#paint10_linear_4_130)"/>
<path d="M80 88.7931C80 89.7739 79.269 90.569 78.3673 90.569C77.4657 90.569 76.7347 89.7739 76.7347 88.7931C76.7347 87.8123 77.4657 87.0172 78.3673 87.0172C79.269 87.0172 80 87.8123 80 88.7931Z" fill="url(#paint11_linear_4_130)"/>
<path d="M3.26531 101.224C3.26531 102.205 2.53434 103 1.63265 103C0.730964 103 0 102.205 0 101.224C0 100.243 0.730964 99.4483 1.63265 99.4483C2.53434 99.4483 3.26531 100.243 3.26531 101.224Z" fill="url(#paint12_linear_4_130)"/>
<path d="M18.6122 101.224C18.6122 102.205 17.8813 103 16.9796 103C16.0779 103 15.3469 102.205 15.3469 101.224C15.3469 100.243 16.0779 99.4483 16.9796 99.4483C17.8813 99.4483 18.6122 100.243 18.6122 101.224Z" fill="url(#paint13_linear_4_130)"/>
<path d="M33.9592 101.224C33.9592 102.205 33.2282 103 32.3265 103C31.4248 103 30.6939 102.205 30.6939 101.224C30.6939 100.243 31.4248 99.4483 32.3265 99.4483C33.2282 99.4483 33.9592 100.243 33.9592 101.224Z" fill="url(#paint14_linear_4_130)"/>
<path d="M49.3061 101.224C49.3061 102.205 48.5752 103 47.6735 103C46.7718 103 46.0408 102.205 46.0408 101.224C46.0408 100.243 46.7718 99.4483 47.6735 99.4483C48.5752 99.4483 49.3061 100.243 49.3061 101.224Z" fill="url(#paint15_linear_4_130)"/>
<path d="M64.6531 101.224C64.6531 102.205 63.9221 103 63.0204 103C62.1187 103 61.3878 102.205 61.3878 101.224C61.3878 100.243 62.1187 99.4483 63.0204 99.4483C63.9221 99.4483 64.6531 100.243 64.6531 101.224Z" fill="url(#paint16_linear_4_130)"/>
<path d="M80 101.224C80 102.205 79.269 103 78.3673 103C77.4657 103 76.7347 102.205 76.7347 101.224C76.7347 100.243 77.4657 99.4483 78.3673 99.4483C79.269 99.4483 80 100.243 80 101.224Z" fill="url(#paint17_linear_4_130)"/>
<defs>
<linearGradient id="paint0_linear_4_130" x1="40" y1="0" x2="40" y2="103" gradientUnits="userSpaceOnUse">
<stop stop-color="#ADB2A2"/>
<stop offset="1" stop-color="#ADB2A2" stop-opacity="0"/>
</linearGradient>
<linearGradient id="paint1_linear_4_130" x1="40" y1="0" x2="40" y2="103" gradientUnits="userSpaceOnUse">
<stop stop-color="#ADB2A2"/>
<stop offset="1" stop-color="#ADB2A2" stop-opacity="0"/>
</linearGradient>
<linearGradient id="paint2_linear_4_130" x1="40" y1="0" x2="40" y2="103" gradientUnits="userSpaceOnUse">
<stop stop-color="#ADB2A2"/>
<stop offset="1" stop-color="#ADB2A2" stop-opacity="0"/>
</linearGradient>
<linearGradient id="paint3_linear_4_130" x1="40" y1="0" x2="40" y2="103" gradientUnits="userSpaceOnUse">
<stop stop-color="#ADB2A2"/>
<stop offset="1" stop-color="#ADB2A2" stop-opacity="0"/>
</linearGradient>
<linearGradient id="paint4_linear_4_130" x1="40" y1="0" x2="40" y2="103" gradientUnits="userSpaceOnUse">
<stop stop-color="#ADB2A2"/>
<stop offset="1" stop-color="#ADB2A2" stop-opacity="0"/>
</linearGradient>
<linearGradient id="paint5_linear_4_130" x1="40" y1="0" x2="40" y2="103" gradientUnits="userSpaceOnUse">
<stop stop-color="#ADB2A2"/>
<stop offset="1" stop-color="#ADB2A2" stop-opacity="0"/>
</linearGradient>
<linearGradient id="paint6_linear_4_130" x1="40" y1="0" x2="40" y2="103" gradientUnits="userSpaceOnUse">
<stop stop-color="#ADB2A2" stop-opacity="0.55"/>
<stop offset="1" stop-color="#ADB2A2" stop-opacity="0"/>
</linearGradient>
<linearGradient id="paint7_linear_4_130" x1="40" y1="0" x2="40" y2="103" gradientUnits="userSpaceOnUse">
<stop stop-color="#ADB2A2" stop-opacity="0.55"/>
<stop offset="1" stop-color="#ADB2A2" stop-opacity="0"/>
</linearGradient>
<linearGradient id="paint8_linear_4_130" x1="40" y1="0" x2="40" y2="103" gradientUnits="userSpaceOnUse">
<stop stop-color="#ADB2A2" stop-opacity="0.55"/>
<stop offset="1" stop-color="#ADB2A2" stop-opacity="0"/>
</linearGradient>
<linearGradient id="paint9_linear_4_130" x1="40" y1="0" x2="40" y2="103" gradientUnits="userSpaceOnUse">
<stop stop-color="#ADB2A2" stop-opacity="0.55"/>
<stop offset="1" stop-color="#ADB2A2" stop-opacity="0"/>
</linearGradient>
<linearGradient id="paint10_linear_4_130" x1="40" y1="0" x2="40" y2="103" gradientUnits="userSpaceOnUse">
<stop stop-color="#ADB2A2" stop-opacity="0.55"/>
<stop offset="1" stop-color="#ADB2A2" stop-opacity="0"/>
</linearGradient>
<linearGradient id="paint11_linear_4_130" x1="40" y1="0" x2="40" y2="103" gradientUnits="userSpaceOnUse">
<stop stop-color="#ADB2A2" stop-opacity="0.55"/>
<stop offset="1" stop-color="#ADB2A2" stop-opacity="0"/>
</linearGradient>
<linearGradient id="paint12_linear_4_130" x1="78.3673" y1="99.4483" x2="78.3673" y2="103" gradientUnits="userSpaceOnUse">
<stop stop-color="#ADB2A2" stop-opacity="0.25"/>
<stop offset="1" stop-color="#ADB2A2" stop-opacity="0"/>
</linearGradient>
<linearGradient id="paint13_linear_4_130" x1="78.3673" y1="99.4483" x2="78.3673" y2="103" gradientUnits="userSpaceOnUse">
<stop stop-color="#ADB2A2" stop-opacity="0.25"/>
<stop offset="1" stop-color="#ADB2A2" stop-opacity="0"/>
</linearGradient>
<linearGradient id="paint14_linear_4_130" x1="78.3673" y1="99.4483" x2="78.3673" y2="103" gradientUnits="userSpaceOnUse">
<stop stop-color="#ADB2A2" stop-opacity="0.25"/>
<stop offset="1" stop-color="#ADB2A2" stop-opacity="0"/>
</linearGradient>
<linearGradient id="paint15_linear_4_130" x1="78.3673" y1="99.4483" x2="78.3673" y2="103" gradientUnits="userSpaceOnUse">
<stop stop-color="#ADB2A2" stop-opacity="0.25"/>
<stop offset="1" stop-color="#ADB2A2" stop-opacity="0"/>
</linearGradient>
<linearGradient id="paint16_linear_4_130" x1="78.3673" y1="99.4483" x2="78.3673" y2="103" gradientUnits="userSpaceOnUse">
<stop stop-color="#ADB2A2" stop-opacity="0.25"/>
<stop offset="1" stop-color="#ADB2A2" stop-opacity="0"/>
</linearGradient>
<linearGradient id="paint17_linear_4_130" x1="78.3673" y1="99.4483" x2="78.3673" y2="103" gradientUnits="userSpaceOnUse">
<stop stop-color="#ADB2A2" stop-opacity="0.25"/>
<stop offset="1" stop-color="#ADB2A2" stop-opacity="0"/>
</linearGradient>
</defs>
</svg>
