 <svg
        xmlns="http://www.w3.org/2000/svg"
        width="24"
        height="24"
        viewBox="0 0 24 24"
        fill="none"
      >
        <path
          fill-rule="evenodd"
          clip-rule="evenodd"
          d="M2.83 11.7258C2.83 6.80932 6.80661 2.83 11.7042 2.83C16.6019 2.83 20.5785 6.80932 20.5785 11.7258C20.5785 16.6424 16.6019 20.6217 11.7042 20.6217C6.80661 20.6217 2.83 16.6424 2.83 11.7258ZM1 11.7258C1 5.80212 5.79245 0.999999 11.7042 1C17.616 1 22.4085 5.80212 22.4085 11.7258C22.4085 14.3579 21.4623 16.7686 19.8921 18.635L23.0561 21.8053L21.7608 23.098L18.5994 19.9303C16.7368 21.5036 14.331 22.4517 11.7042 22.4517C5.79245 22.4517 0.999999 17.6496 1 11.7258Z"
          fill="black"
        />
      </svg>